<?xml version="1.0" standalone="no"?>
<!DOCTYPE svg PUBLIC "-//W3C//DTD SVG 20010904//EN"
 "http://www.w3.org/TR/2001/REC-SVG-20010904/DTD/svg10.dtd">
<svg version="1.0" xmlns="http://www.w3.org/2000/svg"
 width="1080.000000pt" height="1080.000000pt" viewBox="0 0 1080.000000 1080.000000"
 preserveAspectRatio="xMidYMid meet">
<metadata>
Created by potrace 1.14, written by Peter Selinger 2001-2017
</metadata>
<g transform="translate(0.000000,1080.000000) scale(0.100000,-0.100000)"
fill="#000000" stroke="none">
<path d="M4007 9612 c-17 -7 -35 -11 -41 -9 -22 8 -143 -56 -187 -98 -9 -8
-19 -15 -22 -15 -7 0 -66 -59 -99 -98 -9 -11 -14 -23 -11 -26 4 -3 1 -6 -5 -6
-7 0 -12 -5 -12 -12 0 -7 -11 -28 -25 -48 -14 -20 -28 -50 -30 -66 -2 -16 -10
-49 -16 -74 -17 -67 -18 -90 -10 -137 5 -24 5 -40 0 -37 -12 7 -11 -3 1 -26 5
-10 13 -36 16 -57 7 -44 54 -153 66 -153 4 0 14 -15 22 -33 7 -19 25 -43 39
-54 15 -11 24 -22 22 -25 -3 -3 15 -19 40 -37 25 -18 45 -37 45 -43 0 -6 3 -8
7 -5 3 4 31 -7 61 -24 51 -29 77 -37 125 -42 9 -1 17 -4 17 -7 0 -10 129 -14
185 -6 22 4 51 8 65 10 40 6 148 54 170 76 11 11 24 20 30 20 14 0 105 94 131
137 12 21 26 40 29 43 12 11 42 88 59 158 22 82 22 252 1 277 -7 8 -10 21 -7
30 8 19 -17 79 -43 105 -11 11 -20 26 -20 33 0 6 -18 32 -40 56 -22 25 -40 49
-40 54 0 6 -3 8 -6 5 -3 -3 -17 5 -31 18 -31 29 -113 77 -130 77 -7 0 -13 5
-13 10 0 6 -3 8 -6 4 -4 -3 -19 0 -34 8 -39 20 -82 27 -183 29 -54 1 -101 -4
-120 -12z"/>
<path d="M6806 9613 c-4 -4 -21 -8 -39 -9 -40 -3 -149 -51 -160 -70 -4 -8 -14
-14 -22 -14 -18 0 -110 -93 -144 -145 -14 -22 -28 -42 -32 -45 -10 -9 -61
-124 -66 -150 -11 -63 -14 -89 -13 -150 1 -92 3 -110 21 -150 9 -19 27 -60 40
-90 25 -59 28 -62 93 -130 52 -54 100 -94 118 -98 7 -2 19 -10 26 -19 6 -9 12
-14 12 -10 0 4 17 -1 39 -12 21 -11 41 -17 45 -14 3 4 6 1 6 -5 0 -6 7 -9 17
-5 9 4 14 2 11 -3 -9 -13 172 -21 252 -11 55 7 210 77 246 111 18 17 39 36 46
42 18 16 44 48 65 81 9 15 22 31 28 35 6 5 6 8 0 8 -6 0 -6 3 1 8 15 11 50 98
67 172 16 67 20 197 5 206 -4 3 -8 19 -8 35 0 16 -14 57 -30 92 -35 71 -80
146 -80 133 0 -5 -13 8 -30 29 -16 21 -30 35 -30 32 0 -3 -13 7 -29 22 -43 41
-211 119 -239 113 -8 -2 -12 0 -9 5 6 10 -198 15 -207 6z"/>
<path d="M5658 9417 c-31 -13 -52 -31 -64 -53 -10 -18 -21 -31 -25 -28 -4 2
-8 -4 -8 -13 -1 -10 -3 -34 -5 -53 -2 -19 -1 -53 4 -75 12 -57 30 -143 41
-190 6 -22 11 -51 13 -65 2 -14 9 -38 15 -53 6 -16 9 -33 6 -38 -3 -5 -1 -18
5 -29 12 -23 29 -99 34 -152 2 -21 9 -44 15 -52 6 -7 9 -21 5 -30 -3 -9 -1
-23 5 -30 11 -13 25 -76 35 -154 2 -18 9 -39 15 -46 6 -7 9 -20 5 -29 -3 -8 2
-29 10 -45 9 -17 13 -37 10 -45 -3 -9 1 -29 10 -45 8 -16 13 -32 10 -35 -3 -3
0 -23 7 -44 7 -21 12 -43 11 -49 -1 -7 3 -25 9 -40 6 -16 13 -40 14 -54 2 -14
9 -47 15 -75 7 -27 13 -62 14 -76 2 -14 6 -30 9 -37 8 -12 26 -91 31 -138 3
-18 9 -41 15 -52 6 -11 8 -28 5 -36 -4 -9 -1 -22 5 -30 10 -12 26 -79 36 -148
2 -15 9 -37 15 -48 6 -11 8 -25 5 -31 -4 -5 0 -25 9 -44 9 -18 13 -40 10 -49
-3 -9 -1 -22 5 -29 6 -8 13 -30 15 -50 3 -20 10 -45 15 -55 5 -10 8 -27 5 -38
-7 -30 9 -46 39 -38 15 3 27 10 27 15 0 5 14 16 32 25 17 9 36 20 42 25 30 25
84 60 108 70 14 6 29 16 31 24 3 7 22 18 41 25 20 6 36 16 36 21 0 6 16 17 35
25 19 8 35 18 35 23 0 6 16 15 35 22 19 7 35 17 35 21 0 5 16 16 35 25 19 9
35 20 35 23 0 4 18 15 40 25 22 10 40 22 40 26 0 5 16 15 35 23 19 8 35 19 35
24 0 5 14 16 32 23 18 7 40 21 50 31 10 10 29 20 43 24 14 3 25 10 25 15 0 5
15 16 33 25 17 9 36 23 40 30 4 8 14 14 22 14 7 0 26 10 42 23 15 12 40 28 56
35 15 6 27 16 27 21 0 5 15 15 34 21 19 6 37 17 39 24 3 8 22 19 42 26 20 7
34 15 31 18 -6 5 29 29 107 72 20 11 37 24 37 28 0 4 16 14 35 21 19 7 35 17
35 22 0 6 16 17 35 25 19 8 35 18 35 23 0 5 18 16 40 25 22 9 40 20 40 25 0 5
16 15 35 22 19 7 35 16 35 21 0 4 15 15 33 24 17 9 36 23 40 30 4 8 14 14 22
14 7 0 27 11 43 25 17 14 35 25 40 25 6 0 22 10 36 23 14 12 37 32 51 44 35
30 65 101 61 143 -5 50 -45 121 -83 146 -18 12 -30 24 -28 28 3 3 2 4 -1 1 -4
-2 -21 3 -38 12 -32 17 -65 25 -103 25 -13 0 -20 5 -17 10 4 6 -3 5 -15 -1
-14 -8 -21 -8 -21 -1 0 8 -6 7 -21 0 -11 -6 -25 -9 -32 -7 -7 2 -27 -2 -46 -9
-18 -8 -37 -12 -41 -9 -10 6 -142 -50 -135 -57 3 -3 -14 -14 -39 -24 -24 -10
-42 -22 -40 -26 2 -3 -5 -9 -16 -13 -11 -4 -28 -15 -38 -24 -21 -22 -233 -113
-276 -118 -58 -8 -261 -7 -296 1 -19 5 -41 9 -47 9 -7 0 -13 4 -13 8 0 5 -7 5
-17 2 -12 -5 -14 -3 -8 7 5 9 4 11 -3 6 -6 -4 -31 3 -54 15 -24 12 -44 21 -45
20 -11 -6 -23 1 -17 11 4 7 3 8 -4 4 -6 -4 -20 2 -32 14 -11 11 -22 20 -25 20
-3 0 -9 0 -13 0 -13 0 -162 146 -162 159 0 7 -4 9 -10 6 -5 -3 -10 -2 -10 3 0
5 -12 27 -26 48 -35 50 -94 192 -88 208 3 7 -2 25 -10 40 -8 16 -12 35 -9 42
3 8 2 22 -2 32 -4 9 -9 31 -11 47 -9 75 -14 93 -49 170 -13 28 -30 57 -39 64
-9 7 -16 18 -16 23 0 27 -163 154 -182 142 -5 -3 -8 -1 -8 5 0 6 -7 7 -17 4
-9 -4 -14 -2 -11 3 12 18 -116 12 -164 -9z"/>
<path d="M5211 9413 c-18 -8 -40 -12 -48 -9 -8 3 -12 2 -9 -3 3 -4 -14 -17
-37 -27 -38 -17 -127 -97 -127 -115 0 -4 -6 -14 -12 -21 -16 -17 -73 -128 -73
-143 0 -5 -6 -26 -12 -45 -7 -19 -22 -81 -33 -138 -24 -118 -52 -200 -80 -232
-11 -13 -20 -27 -20 -32 0 -17 -54 -83 -119 -146 -91 -86 -96 -90 -141 -108
-22 -9 -40 -19 -40 -24 0 -10 -79 -44 -86 -37 -3 3 -27 -4 -52 -15 -26 -11
-63 -22 -82 -25 -78 -10 -260 -5 -260 7 0 3 -8 6 -17 6 -35 2 -71 12 -110 33
-22 11 -43 17 -47 14 -3 -4 -6 -1 -6 6 0 7 -4 10 -8 7 -11 -7 -72 31 -72 44 0
6 -4 9 -10 5 -5 -3 -18 3 -29 14 -11 11 -22 17 -25 14 -3 -4 -6 -1 -6 5 0 13
-88 75 -107 75 -7 0 -13 4 -13 9 0 5 -4 6 -10 3 -5 -3 -10 -1 -10 6 0 7 -3 10
-6 6 -4 -3 -23 2 -44 13 -21 11 -40 16 -44 13 -3 -4 -6 -2 -6 3 0 11 -9 12
-110 17 -42 1 -88 -2 -105 -9 -143 -56 -175 -80 -211 -158 -27 -58 -24 -122 8
-144 10 -7 18 -19 18 -25 0 -7 23 -27 50 -46 28 -18 50 -38 50 -43 0 -5 4 -7
10 -3 5 3 18 -2 28 -12 10 -10 24 -19 31 -21 20 -4 61 -34 61 -44 0 -5 5 -6
10 -3 6 3 13 -1 16 -9 3 -9 10 -13 15 -11 4 3 17 -3 29 -15 11 -11 22 -20 25
-20 3 0 10 0 16 0 5 0 8 -4 5 -9 -6 -9 22 -26 37 -23 4 1 7 -2 7 -8 0 -5 7
-10 15 -10 8 0 15 -5 15 -11 0 -5 5 -7 10 -4 6 3 10 1 10 -5 0 -6 4 -9 9 -5 6
3 14 -3 20 -12 6 -10 11 -15 11 -11 0 4 12 -4 27 -18 14 -13 28 -22 30 -20 3
2 13 -4 24 -15 11 -11 24 -17 28 -14 5 2 12 -2 15 -11 3 -8 10 -12 16 -9 5 3
10 1 10 -5 0 -6 5 -8 10 -5 6 3 10 2 10 -4 0 -6 37 -33 83 -61 45 -28 161
-101 257 -162 96 -61 200 -126 230 -145 238 -148 318 -201 312 -207 -4 -4 -2
-7 3 -6 22 5 36 -1 29 -12 -4 -7 -3 -8 4 -4 6 4 20 -1 30 -11 10 -10 25 -19
33 -21 8 -2 19 -10 25 -17 6 -8 14 -12 17 -8 4 3 9 -2 13 -11 3 -9 12 -16 20
-16 8 0 14 -5 14 -11 0 -5 4 -8 9 -5 5 3 12 -1 15 -10 3 -8 10 -12 16 -9 5 3
10 1 10 -5 0 -6 5 -8 10 -5 6 3 13 -1 16 -9 3 -9 10 -13 15 -10 5 3 9 0 9 -6
0 -6 4 -9 9 -6 5 3 11 -1 15 -9 3 -8 12 -15 21 -15 8 0 15 -5 15 -11 0 -5 4
-8 9 -5 5 3 12 -1 15 -10 4 -9 9 -14 12 -11 4 3 13 0 20 -8 19 -19 44 -8 43
18 0 12 3 36 6 52 4 17 8 41 10 55 3 14 9 43 15 65 6 22 13 51 15 65 5 32 12
63 25 120 17 71 21 93 34 165 3 17 11 50 16 75 14 60 20 85 24 112 2 13 10 46
16 73 17 73 20 87 25 115 3 14 12 57 20 95 18 78 21 96 30 140 3 17 12 62 20
100 9 39 18 79 20 90 12 53 37 172 41 193 6 33 12 60 29 137 9 39 18 81 20 95
3 14 12 57 20 95 9 39 18 79 20 90 2 11 14 65 26 120 24 112 31 198 19 229
-13 34 -52 72 -96 94 -23 12 -44 19 -46 16 -3 -2 -16 -1 -29 4 -16 6 -35 4
-58 -5z"/>
<path d="M8126 8213 c-56 -40 -55 -39 -151 -188 -35 -55 -68 -104 -72 -110 -5
-5 -26 -39 -48 -75 -21 -36 -42 -67 -45 -70 -3 -3 -19 -27 -35 -55 -31 -55
-108 -173 -125 -192 -5 -7 -10 -17 -10 -22 0 -5 -6 -16 -13 -23 -7 -7 -26 -35
-41 -63 -16 -27 -32 -52 -36 -55 -3 -3 -24 -34 -45 -70 -21 -36 -41 -67 -45
-70 -3 -3 -25 -39 -50 -80 -24 -41 -49 -80 -54 -86 -6 -6 -20 -27 -31 -47 -11
-20 -23 -37 -28 -37 -4 0 -5 -4 -2 -10 3 -5 1 -10 -4 -10 -6 0 -11 -4 -11 -9
0 -9 -59 -104 -78 -126 -4 -5 -25 -39 -46 -75 -21 -36 -41 -67 -45 -70 -4 -3
-18 -24 -31 -47 -13 -24 -28 -43 -32 -43 -5 0 -7 -4 -4 -9 4 -5 2 -11 -2 -13
-4 -1 -26 -32 -47 -68 -21 -36 -42 -67 -45 -70 -4 -3 -23 -34 -44 -68 -20 -35
-43 -71 -51 -79 -8 -8 -15 -18 -15 -23 0 -5 -3 -15 -6 -24 -4 -11 0 -14 15
-11 12 2 21 1 21 -3 0 -4 8 -8 18 -9 18 -1 74 -10 107 -18 29 -6 88 -17 103
-18 6 0 12 -3 12 -7 0 -3 8 -6 18 -6 9 -1 33 -5 52 -9 19 -4 43 -7 53 -7 9 0
15 -2 13 -6 -2 -4 10 -8 27 -9 52 -3 77 -7 77 -13 0 -3 8 -6 18 -7 9 -1 33 -5
52 -8 19 -4 41 -7 48 -8 6 0 12 -3 12 -7 0 -3 8 -6 18 -7 18 -1 74 -10 107
-18 29 -6 88 -17 103 -18 6 0 12 -3 12 -7 0 -3 8 -6 18 -7 9 -1 33 -5 52 -8
19 -4 43 -7 53 -7 9 1 15 -2 13 -6 -2 -4 10 -8 27 -9 52 -3 77 -7 77 -13 0 -3
8 -6 18 -7 9 -1 33 -5 52 -8 19 -4 41 -7 48 -8 6 0 12 -4 12 -9 0 -5 4 -7 8
-4 4 3 28 0 53 -6 24 -5 53 -11 64 -14 49 -9 91 -16 103 -17 6 0 12 -3 12 -7
0 -3 8 -6 18 -7 9 -1 33 -5 52 -8 19 -4 43 -7 53 -7 9 1 15 -3 13 -7 -3 -4 7
-6 22 -6 15 1 35 -2 44 -7 10 -5 30 -10 45 -13 15 -2 44 -7 63 -11 19 -3 41
-6 48 -7 6 0 12 -4 12 -9 0 -5 4 -7 8 -4 4 3 28 0 53 -6 24 -5 53 -11 64 -14
49 -9 91 -16 103 -17 6 0 12 -3 12 -7 0 -12 165 -20 198 -8 29 10 69 53 92 98
22 45 34 117 20 125 -6 4 -8 14 -5 24 9 28 -30 93 -94 160 -34 35 -61 60 -61
57 0 -4 -10 2 -22 13 -11 11 -25 18 -30 15 -4 -3 -8 0 -8 6 0 6 -4 8 -10 5 -5
-3 -10 -1 -10 6 0 7 -3 10 -6 6 -4 -3 -23 2 -44 13 -21 11 -40 16 -44 13 -3
-4 -6 -1 -6 6 0 7 -4 9 -10 6 -5 -3 -10 -2 -10 2 0 9 -9 11 -72 15 -21 2 -38
5 -38 8 0 3 -8 6 -17 7 -10 1 -34 4 -53 8 -19 4 -41 7 -47 7 -7 1 -13 6 -13
11 0 6 -3 8 -6 4 -4 -3 -23 2 -44 13 -21 11 -40 16 -44 13 -3 -4 -6 -1 -6 6 0
7 -4 9 -10 6 -5 -3 -10 -1 -10 5 0 6 -5 8 -10 5 -6 -3 -13 1 -16 9 -3 9 -10
13 -15 10 -5 -3 -9 0 -9 7 0 7 -2 10 -5 7 -6 -5 -42 23 -99 77 -17 16 -34 28
-38 27 -4 -1 -10 9 -14 23 -3 14 -10 22 -16 19 -5 -3 -12 3 -15 15 -3 12 -10
21 -15 21 -5 0 -20 24 -34 53 -13 28 -33 66 -44 83 -11 16 -22 47 -24 67 -3
20 -9 45 -15 55 -26 49 -32 300 -7 340 3 6 8 27 11 48 5 42 81 206 111 241 45
51 56 66 85 118 59 105 78 175 76 278 -2 70 -8 103 -25 139 -12 26 -22 50 -22
53 0 3 -10 20 -22 36 -57 77 -177 108 -242 62z"/>
<path d="M3029 8120 c-1 -5 -2 -15 -3 -20 0 -6 -6 -14 -13 -18 -7 -5 -11 -45
-11 -117 -1 -151 -9 -431 -17 -540 -5 -82 -8 -109 -22 -185 -5 -27 -11 -60
-17 -100 -2 -14 -9 -38 -15 -53 -8 -20 -8 -26 0 -21 6 3 3 -8 -5 -25 -9 -17
-15 -34 -14 -38 2 -12 -13 -63 -35 -113 -10 -25 -21 -55 -23 -68 -7 -34 -135
-280 -165 -316 -5 -6 -34 -48 -64 -93 -57 -88 -60 -92 -100 -137 -14 -16 -25
-32 -25 -37 0 -4 -3 -16 -7 -26 -3 -10 -2 -15 2 -10 8 7 43 -55 45 -78 0 -5
14 -26 30 -45 17 -19 30 -40 30 -46 0 -7 7 -14 15 -18 8 -3 15 -10 15 -15 0
-5 23 -32 50 -59 28 -27 50 -55 50 -61 0 -6 4 -10 9 -9 4 2 17 -7 27 -20 21
-25 49 -22 59 6 2 10 15 29 27 43 13 15 34 41 48 59 14 18 33 42 43 53 9 11
17 23 17 27 0 3 8 15 19 26 20 22 57 76 105 153 15 25 32 48 36 51 4 3 15 20
24 38 9 17 20 32 24 33 4 1 126 2 272 4 146 1 268 3 273 4 11 2 8 41 -3 41
-14 0 -60 49 -60 63 0 6 -3 7 -6 4 -4 -4 -19 9 -34 28 -15 19 -30 32 -34 28
-3 -3 -6 -1 -6 4 0 6 -20 32 -45 57 -25 26 -45 52 -45 58 0 6 -3 9 -6 6 -6 -7
-54 39 -54 52 0 6 -6 10 -12 11 -7 0 -22 12 -34 27 l-21 27 19 55 c11 30 21
67 23 82 1 14 6 32 10 39 5 7 10 24 12 38 8 49 13 76 19 106 3 17 7 41 9 55 1
14 8 59 14 100 20 130 21 141 27 310 3 91 6 174 7 185 2 65 -3 83 -28 89 -16
4 -25 13 -25 26 0 14 -8 20 -32 22 -21 2 -33 8 -33 18 0 9 -12 17 -30 20 -22
4 -31 11 -33 28 -3 17 -10 22 -34 22 -21 0 -31 6 -35 20 -3 13 -14 20 -28 20
-26 0 -50 24 -40 40 4 6 -5 10 -22 10 -35 0 -58 14 -49 29 5 7 -2 11 -16 11
-32 0 -52 15 -45 34 4 9 2 16 -3 16 -6 0 -11 -4 -11 -10z"/>
<path d="M2616 7988 c-93 -39 -178 -80 -188 -90 -9 -9 -29 -20 -43 -24 -14 -3
-25 -10 -25 -14 0 -4 -15 -17 -32 -29 -54 -34 -69 -45 -105 -76 -41 -34 -160
-153 -185 -183 -31 -39 -116 -167 -136 -208 l-21 -42 -93 -2 c-51 -1 -153 -2
-225 -3 -95 0 -133 -4 -133 -12 0 -7 16 -28 35 -48 19 -20 35 -41 35 -48 0 -7
3 -9 6 -6 4 4 20 -10 35 -30 16 -20 29 -33 29 -30 0 3 26 -22 58 -56 31 -33
73 -76 92 -95 19 -18 33 -39 31 -45 -7 -22 -12 -61 -16 -112 -2 -28 -8 -75
-12 -105 -10 -63 -4 -337 7 -347 3 -4 9 -61 10 -92 0 -13 4 -29 9 -35 4 -6 9
-24 9 -41 0 -16 8 -43 16 -60 9 -16 16 -41 16 -55 0 -14 10 -45 21 -70 11 -25
32 -74 46 -110 14 -36 33 -74 43 -85 10 -11 26 -38 36 -60 10 -22 24 -44 31
-48 7 -4 13 -14 13 -21 0 -7 9 -22 20 -34 11 -12 25 -33 30 -47 6 -15 14 -24
19 -21 5 3 14 -8 20 -25 6 -17 15 -28 20 -24 6 3 13 -6 17 -20 3 -13 10 -22
15 -19 5 3 9 1 9 -4 0 -4 35 -44 77 -88 42 -43 93 -97 111 -119 19 -22 39 -39
43 -38 5 2 11 -8 15 -22 3 -13 10 -23 14 -22 4 1 21 -15 38 -35 16 -21 32 -35
36 -31 3 3 6 0 6 -8 0 -8 8 -22 18 -31 36 -36 52 -55 52 -64 0 -5 9 -15 20
-22 11 -7 20 -18 20 -26 0 -8 7 -16 15 -20 8 -3 15 -10 15 -16 0 -6 11 -26 25
-44 14 -18 25 -38 25 -44 0 -6 8 -16 19 -21 10 -6 22 -22 25 -37 4 -15 17 -41
30 -58 23 -32 31 -49 66 -131 12 -27 25 -59 30 -70 38 -86 48 -117 44 -129 -3
-8 4 -33 15 -56 11 -23 17 -48 15 -55 -3 -8 1 -28 10 -45 8 -17 12 -38 9 -46
-3 -8 0 -20 6 -28 6 -7 14 -39 17 -70 3 -32 9 -67 13 -79 5 -12 6 -28 4 -35
-3 -7 -2 -20 3 -30 4 -9 6 -28 5 -41 -2 -18 1 -22 13 -18 9 4 16 1 16 -5 0 -6
3 -9 6 -6 3 4 20 0 39 -7 18 -8 35 -11 39 -8 3 4 6 2 6 -4 0 -5 6 -10 13 -10
6 -1 30 -4 52 -8 105 -17 298 -26 316 -14 7 4 9 20 6 40 -4 19 -9 59 -12 89
-3 30 -10 80 -16 110 -6 30 -12 69 -15 85 -2 17 -6 44 -9 60 -2 17 -6 44 -8
61 -2 17 -7 35 -10 41 -4 6 -9 24 -11 40 -5 41 -26 120 -48 181 -10 29 -18 63
-18 75 0 13 -5 28 -11 34 -7 7 9 29 55 76 36 36 66 72 66 79 0 10 -23 13 -95
13 l-96 -1 -25 51 c-66 130 -84 162 -103 183 -12 13 -21 29 -21 36 0 7 -9 21
-20 31 -11 10 -22 27 -26 39 -4 11 -13 28 -20 36 -8 8 -57 70 -110 138 -53 67
-100 122 -105 122 -5 0 -9 7 -9 15 0 8 -9 19 -20 25 -11 6 -20 18 -20 27 0 9
-3 14 -6 11 -6 -7 -54 39 -54 52 0 6 -7 10 -15 10 -8 0 -15 4 -15 9 0 5 -34
44 -75 86 -41 42 -75 78 -75 80 0 2 -12 16 -27 32 -46 47 -83 97 -83 111 0 7
-4 11 -9 8 -4 -3 -17 15 -27 39 -10 25 -22 45 -27 45 -4 0 -17 21 -28 48 -12
26 -27 61 -34 77 -7 17 -17 42 -20 58 -4 15 -11 30 -16 32 -4 3 -6 12 -2 20 3
9 -2 30 -11 49 -20 43 -27 117 -27 286 0 155 3 210 13 204 4 -3 6 4 6 13 -1
23 7 61 20 94 6 15 9 29 6 32 -6 5 64 189 75 197 3 3 15 18 24 33 43 67 190
217 212 217 8 0 15 4 15 10 0 5 15 17 33 26 17 10 37 23 42 29 6 7 35 22 66
35 l57 23 0 46 c0 120 11 409 17 431 3 14 0 32 -7 42 -12 16 -26 12 -182 -54z"/>
<path d="M8834 7661 c-2 -2 -16 -6 -31 -7 -80 -8 -105 -14 -154 -35 -30 -13
-58 -28 -64 -34 -10 -12 -52 -41 -89 -62 -11 -7 -18 -13 -13 -13 4 0 -10 -17
-31 -37 -41 -40 -123 -173 -128 -207 -2 -12 -8 -43 -14 -71 -27 -128 12 -347
72 -407 10 -10 18 -25 18 -33 0 -8 9 -19 20 -25 11 -6 20 -17 20 -25 0 -8 4
-15 9 -15 5 0 28 -18 50 -40 23 -23 41 -37 41 -33 0 4 5 0 11 -9 5 -10 17 -18
24 -18 8 0 15 -5 15 -11 0 -5 5 -7 10 -4 6 3 10 1 10 -6 0 -7 3 -10 6 -6 4 3
23 -2 44 -13 21 -11 40 -16 44 -13 3 4 6 2 6 -3 0 -5 8 -10 18 -11 9 -1 33 -5
52 -8 43 -8 122 -8 175 0 22 3 51 7 65 9 42 7 128 44 150 66 11 11 25 20 32
20 6 0 18 7 27 15 84 79 116 116 133 153 6 12 15 22 20 22 5 0 6 5 3 10 -3 6
-2 10 3 10 16 0 51 102 57 170 2 19 7 53 10 75 7 50 -18 200 -39 240 -9 17
-16 35 -16 40 0 6 -10 22 -23 37 -12 15 -35 46 -52 69 -16 23 -45 51 -62 64
-18 12 -30 25 -26 28 3 4 -1 7 -10 7 -9 0 -17 5 -17 11 0 5 -4 8 -9 5 -5 -3
-12 1 -15 10 -3 8 -10 12 -16 9 -5 -3 -10 -1 -10 6 0 7 -3 10 -6 6 -4 -3 -28
5 -54 18 -26 13 -50 21 -54 18 -3 -4 -6 -2 -6 3 0 10 -8 12 -72 16 -21 2 -38
5 -38 8 0 6 -90 7 -96 1z"/>
<path d="M9045 5638 c-19 -11 -76 -25 -138 -33 -16 -1 -41 -8 -56 -15 -15 -6
-32 -10 -37 -8 -5 1 -26 -4 -47 -11 -21 -7 -41 -11 -43 -8 -3 3 -22 -1 -41 -9
-19 -9 -37 -13 -40 -10 -3 3 -23 -2 -45 -11 -21 -8 -41 -13 -45 -10 -3 3 -23
-1 -45 -10 -21 -8 -41 -13 -44 -10 -3 3 -21 -1 -40 -9 -19 -8 -39 -12 -43 -9
-5 3 -25 -2 -45 -10 -20 -9 -41 -13 -46 -10 -5 3 -23 -1 -40 -10 -17 -9 -35
-13 -40 -10 -5 3 -26 -1 -46 -10 -43 -18 -47 -18 -39 -5 3 5 -15 0 -40 -11
-25 -11 -49 -18 -54 -15 -5 3 -25 -1 -44 -9 -19 -8 -37 -12 -40 -8 -4 3 -19 0
-35 -6 -26 -11 -63 -19 -117 -26 -21 -2 -87 -19 -143 -37 -19 -5 -36 -7 -39
-4 -3 3 -22 -2 -43 -10 -20 -8 -41 -14 -46 -12 -5 1 -26 -4 -47 -11 -21 -7
-41 -11 -43 -8 -3 3 -21 -1 -40 -9 -19 -8 -39 -12 -44 -9 -5 3 -23 -1 -40 -10
-17 -9 -37 -14 -43 -12 -7 2 -27 -2 -46 -9 -18 -8 -37 -12 -41 -9 -4 3 -24 -2
-44 -10 -20 -9 -41 -13 -45 -10 -5 3 -25 -2 -45 -10 -20 -9 -41 -13 -46 -10
-5 3 -23 -1 -40 -10 -17 -9 -35 -13 -39 -10 -5 3 -21 1 -36 -5 -23 -9 -26 -14
-20 -38 3 -15 11 -28 16 -30 5 -2 16 -20 26 -40 9 -20 23 -41 30 -45 7 -4 13
-13 13 -19 0 -6 11 -26 25 -44 14 -18 25 -36 25 -39 0 -3 11 -21 25 -39 14
-18 25 -38 25 -44 0 -6 9 -17 19 -24 11 -8 23 -26 26 -41 4 -15 16 -32 26 -38
11 -5 19 -15 19 -21 0 -6 11 -26 25 -44 14 -18 25 -37 25 -42 0 -5 9 -17 20
-27 11 -10 22 -27 26 -39 4 -11 17 -34 30 -49 13 -16 24 -35 24 -42 0 -8 8
-18 17 -24 10 -5 23 -24 29 -43 6 -18 16 -32 22 -31 6 2 16 -13 22 -32 6 -19
16 -35 21 -35 5 0 15 -12 21 -27 7 -16 23 -41 35 -56 13 -16 23 -34 23 -42 0
-7 7 -19 17 -26 9 -8 22 -29 30 -46 7 -18 17 -33 22 -33 5 0 14 -13 21 -30 7
-16 16 -30 21 -30 5 0 15 -12 21 -27 7 -16 23 -41 35 -56 13 -16 23 -34 23
-42 0 -7 7 -18 16 -26 8 -7 24 -29 35 -48 40 -71 69 -116 69 -106 1 6 8 -6 16
-25 8 -19 22 -38 30 -43 7 -4 14 -14 14 -22 0 -7 11 -26 24 -42 13 -15 26 -38
30 -49 4 -12 15 -29 26 -39 11 -10 20 -23 20 -28 0 -6 11 -25 25 -43 14 -18
25 -37 25 -43 0 -6 9 -15 20 -21 11 -6 20 -17 20 -24 0 -40 133 -160 154 -139
3 4 6 2 6 -3 0 -15 50 -8 100 14 147 64 192 270 107 492 -11 30 -28 60 -37 67
-9 6 -22 30 -30 52 -7 22 -17 38 -22 35 -4 -3 -13 7 -19 23 -6 15 -18 37 -28
48 -24 26 -106 234 -102 258 1 10 -2 24 -7 30 -10 13 -9 187 2 257 12 75 93
254 144 319 48 61 123 130 162 151 14 7 30 19 35 25 12 14 192 89 220 92 20 2
79 10 125 18 14 2 41 6 60 9 42 5 173 60 164 68 -3 4 4 9 16 13 37 12 131 117
161 179 41 86 47 153 20 220 -23 54 -65 96 -101 99 -11 1 -20 4 -20 7 0 8 -50
4 -74 -6 -14 -5 -17 -4 -12 4 9 15 6 15 -19 0z"/>
<path d="M1903 5442 c-13 -8 -142 -311 -148 -347 -2 -11 -9 -42 -15 -70 -6
-27 -14 -59 -16 -70 -17 -71 -23 -379 -10 -465 10 -66 24 -125 39 -167 l16
-42 -140 -142 c-76 -78 -139 -145 -139 -149 0 -4 27 -6 60 -5 37 2 57 -1 54
-7 -4 -6 3 -5 15 1 14 8 21 8 21 1 0 -8 6 -8 20 0 14 8 20 8 20 0 0 -8 6 -8
20 0 11 6 20 7 20 3 0 -4 43 -8 97 -7 l96 0 16 -29 c9 -17 42 -63 74 -103 31
-41 57 -76 57 -79 0 -3 20 -26 45 -52 25 -25 45 -50 45 -56 0 -6 3 -8 6 -5 7
8 54 -40 54 -54 0 -6 2 -9 5 -6 5 5 48 -28 96 -74 9 -9 20 -14 23 -10 3 3 6 0
6 -6 0 -18 223 -159 243 -154 4 1 7 -3 7 -9 0 -5 5 -7 10 -4 6 3 10 1 10 -6 0
-7 3 -10 6 -6 4 3 28 -5 54 -18 26 -13 50 -21 54 -18 3 4 6 0 6 -7 0 -7 3 -11
6 -7 4 3 25 -3 47 -14 22 -12 51 -22 66 -25 39 -5 63 -11 92 -22 15 -6 30 -8
33 -5 3 4 6 2 6 -3 0 -8 16 -10 118 -17 17 -1 32 -4 32 -7 0 -6 73 -10 257
-13 73 -1 133 -4 133 -7 0 -3 50 -5 110 -5 61 0 110 -2 110 -5 0 -3 24 -6 53
-7 93 -4 137 -8 137 -13 0 -3 15 -6 33 -7 52 -3 77 -7 77 -13 0 -3 8 -6 18 -6
9 -1 33 -5 52 -9 19 -4 41 -8 48 -8 6 0 12 -5 12 -10 0 -6 3 -8 6 -4 4 3 21 0
39 -8 19 -7 36 -11 39 -7 3 3 6 0 6 -7 0 -7 4 -9 10 -6 5 3 22 -1 38 -9 16 -8
32 -12 36 -9 3 4 6 0 6 -7 0 -7 3 -10 7 -7 3 4 34 -8 69 -27 34 -19 65 -32 68
-29 3 4 6 1 6 -6 0 -7 4 -10 9 -7 5 3 12 -1 15 -10 3 -8 10 -12 16 -9 5 3 10
1 10 -5 0 -6 4 -9 10 -5 5 3 18 -3 29 -14 11 -11 22 -17 25 -14 3 3 8 -2 12
-11 3 -9 10 -13 15 -11 4 3 17 -3 28 -14 11 -11 22 -17 25 -14 3 3 8 -2 12
-11 3 -9 10 -16 15 -16 6 0 19 -9 31 -20 12 -10 25 -17 30 -14 4 3 8 1 8 -3 0
-5 33 -31 74 -58 41 -28 72 -53 70 -57 -9 -14 88 34 107 53 10 10 25 19 33 19
12 0 39 20 87 65 9 8 18 15 22 15 3 0 35 29 72 64 36 36 71 66 78 69 9 3 9 10
-1 31 -6 15 -17 24 -22 21 -6 -3 -10 -2 -10 3 0 5 -27 28 -60 51 -33 23 -60
47 -60 52 0 6 -4 8 -9 5 -5 -3 -12 1 -15 10 -3 8 -10 13 -15 10 -5 -3 -12 1
-15 10 -3 8 -10 12 -16 9 -5 -3 -10 -2 -10 3 0 9 -163 118 -261 176 -31 17
-48 35 -51 51 -3 14 -1 22 5 18 5 -3 6 3 2 16 -4 12 -7 138 -7 279 -1 141 -3
260 -5 265 -2 4 -11 1 -18 -5 -23 -21 -294 -279 -363 -346 -36 -35 -68 -59
-71 -55 -6 8 -24 14 -53 16 -10 1 -18 5 -18 10 0 4 -4 6 -8 3 -4 -3 -28 0 -53
6 -24 6 -50 11 -56 11 -7 0 -13 3 -13 6 0 4 -15 7 -32 8 -18 0 -51 4 -73 8
-49 8 -119 16 -162 18 -18 1 -33 4 -33 7 0 3 -31 5 -70 5 -38 0 -70 2 -70 5 0
3 -78 6 -173 7 -245 3 -337 10 -422 30 -16 4 -33 6 -37 5 -5 -1 -8 2 -8 6 0 4
-8 8 -17 9 -41 3 -70 11 -99 26 -17 9 -34 13 -38 10 -3 -4 -6 -1 -6 6 0 7 -4
10 -9 7 -17 -11 -281 154 -281 175 0 5 -3 8 -8 6 -8 -2 -142 126 -142 136 0 3
-16 23 -35 44 -19 21 -35 43 -35 50 0 7 -6 16 -13 20 -7 4 -21 26 -31 47 -10
22 -26 48 -35 57 -9 10 -27 46 -40 81 -14 35 -29 69 -34 75 -5 7 -6 20 -3 29
4 9 1 23 -5 30 -13 16 -22 105 -21 209 1 68 3 82 17 155 4 19 9 45 10 56 2 12
7 30 13 40 5 11 12 37 15 59 6 37 3 45 -34 90 -23 27 -50 55 -60 63 -11 7 -16
19 -13 25 4 7 4 9 0 6 -9 -8 -56 34 -56 50 0 6 -3 10 -7 9 -9 -2 -83 67 -83
76 0 3 -8 14 -17 24 -10 9 -29 32 -43 49 -16 20 -30 29 -37 25z"/>
<path d="M8775 4855 c-16 -8 -68 -30 -115 -50 -47 -20 -89 -43 -93 -51 -4 -8
-12 -14 -18 -14 -8 0 -63 -53 -100 -98 -27 -32 -66 -105 -73 -135 -4 -15 -11
-25 -16 -22 -5 3 -9 -3 -9 -12 0 -10 -5 -40 -11 -68 -16 -68 -21 -187 -8 -202
5 -7 7 -17 3 -23 -4 -6 0 -25 8 -43 8 -18 27 -60 41 -95 15 -34 35 -71 46 -82
11 -11 20 -27 20 -35 0 -8 3 -14 8 -13 4 2 19 -9 33 -22 53 -50 111 -95 120
-93 5 2 9 -2 9 -9 0 -6 3 -9 6 -5 4 3 28 -5 54 -18 26 -13 50 -21 54 -18 3 4
6 2 6 -3 0 -10 37 -14 150 -15 105 -1 136 4 210 35 143 60 251 163 315 301 23
50 46 108 50 130 11 52 12 165 3 187 -5 9 -10 32 -12 52 -6 43 -48 137 -70
155 -9 7 -16 19 -16 25 0 6 -8 19 -17 28 -10 9 -33 33 -51 53 -70 76 -217 150
-314 158 -10 1 -18 4 -18 7 0 9 -132 4 -154 -5 -14 -6 -17 -5 -12 3 9 14 9 14
-29 -3z"/>
<path d="M7536 3807 c-16 -12 -19 -35 -22 -226 -2 -117 -7 -218 -11 -223 -3
-6 -8 -25 -10 -42 -2 -17 -6 -41 -9 -53 -2 -13 -6 -33 -8 -45 -12 -62 -46
-163 -55 -166 -6 -2 -9 -8 -5 -13 3 -5 -8 -30 -25 -56 -17 -26 -31 -50 -31
-54 0 -40 -217 -299 -249 -299 -7 0 -9 -4 -6 -10 3 -5 2 -10 -3 -10 -5 0 -21
-10 -35 -22 -70 -60 -81 -68 -92 -68 -7 0 -25 -10 -41 -22 -36 -29 -268 -128
-272 -117 -2 5 -13 4 -24 -2 -11 -6 -43 -12 -72 -13 -29 -1 -57 -6 -64 -10 -7
-4 -12 -4 -12 1 0 4 -33 9 -73 10 -92 2 -117 5 -117 16 0 4 -4 6 -8 3 -4 -3
-28 0 -53 6 -24 6 -50 11 -56 11 -7 0 -13 3 -13 7 0 4 -6 7 -12 7 -7 0 -21 4
-30 8 -11 4 -23 -1 -35 -14 -9 -12 -21 -21 -25 -21 -4 0 -47 -40 -96 -90 -49
-49 -94 -90 -101 -90 -6 0 -11 -7 -11 -15 0 -8 -4 -15 -10 -15 -5 0 -26 -16
-47 -36 -21 -19 -46 -43 -55 -51 -29 -27 -21 -50 15 -44 4 0 7 -4 7 -11 0 -6
3 -9 6 -5 4 3 28 -5 54 -18 26 -13 50 -21 54 -18 3 4 6 0 6 -7 0 -7 3 -11 6
-7 4 3 28 -5 54 -18 26 -13 50 -21 54 -18 3 4 6 1 6 -6 0 -7 4 -9 10 -6 5 3
19 1 31 -6 12 -6 31 -13 43 -15 11 -2 37 -6 56 -10 19 -3 41 -6 48 -7 6 0 12
-3 12 -7 0 -4 14 -6 30 -5 17 1 30 -1 30 -4 0 -18 298 -16 440 2 14 2 41 9 61
16 20 6 41 11 45 9 5 -2 24 3 42 11 l32 14 90 -91 c50 -50 90 -88 90 -85 0 3
14 -11 30 -32 17 -21 30 -34 30 -29 0 5 7 -1 15 -13 9 -12 22 -20 29 -17 14 6
16 30 19 281 2 118 3 122 29 146 15 14 36 28 47 32 10 3 22 12 25 20 3 8 12
15 19 15 12 0 53 33 118 95 9 8 19 15 22 15 8 0 61 53 134 136 76 86 93 106
93 113 0 3 12 20 26 36 14 17 33 44 41 60 9 17 19 32 22 35 4 3 13 20 20 38 8
17 17 32 21 32 9 0 107 240 140 343 21 68 31 145 18 153 -5 3 -6 14 -3 24 4
13 -1 22 -15 30 -11 6 -18 15 -15 21 4 5 2 9 -4 9 -6 0 -13 11 -17 24 -3 13
-15 27 -26 29 -14 4 -19 11 -15 21 9 23 -10 66 -28 66 -13 0 -19 12 -16 33 0
4 -8 7 -19 7 -11 0 -21 6 -22 13 0 6 -2 17 -3 22 -2 6 -3 20 -4 33 -1 15 -7
22 -21 22 -19 0 -24 9 -21 36 1 7 -7 14 -18 17 -13 3 -21 17 -26 45 -5 32 -11
42 -28 44 -17 2 -21 9 -19 29 2 20 -3 28 -19 32 -11 3 -18 10 -15 15 3 5 -6
14 -20 21 -32 14 -36 14 -58 -2z"/>
<path d="M7257 3644 c-3 -3 -29 -7 -59 -10 -29 -2 -66 -7 -83 -9 -16 -2 -48
-7 -70 -10 -22 -3 -51 -8 -65 -11 -14 -2 -42 -6 -62 -9 -21 -2 -47 -9 -58 -15
-11 -6 -24 -8 -29 -6 -5 3 -25 -1 -45 -9 -20 -9 -41 -13 -46 -10 -4 3 -29 -4
-54 -15 -25 -10 -46 -15 -46 -11 0 5 -36 -6 -80 -24 -73 -31 -80 -33 -89 -17
-6 9 -11 13 -11 8 0 -5 -13 8 -30 29 -16 21 -30 35 -30 31 0 -3 -13 8 -30 26
-25 28 -31 31 -40 18 -10 -16 -14 -67 -10 -137 1 -34 -2 -44 -17 -50 -10 -3
-21 -12 -25 -19 -4 -6 -38 -25 -75 -40 -37 -16 -76 -37 -85 -46 -10 -10 -29
-20 -43 -24 -14 -3 -25 -10 -25 -15 0 -5 -15 -16 -32 -25 -18 -9 -37 -23 -41
-30 -4 -8 -14 -14 -21 -14 -12 0 -39 -21 -87 -65 -9 -8 -20 -15 -25 -15 -5 0
-17 -8 -25 -17 -9 -10 -33 -31 -54 -48 -73 -57 -181 -156 -311 -282 -53 -51
-97 -93 -100 -93 -2 0 -12 -8 -23 -17 -10 -10 -31 -27 -45 -38 -15 -11 -35
-28 -44 -37 -9 -10 -22 -18 -29 -18 -7 0 -20 -8 -30 -19 -20 -21 -311 -146
-320 -138 -3 3 -17 1 -32 -5 -28 -11 -56 -16 -138 -22 -28 -2 -56 -7 -62 -10
-6 -4 -11 -2 -11 4 0 8 -6 8 -20 0 -14 -8 -20 -8 -20 0 0 8 -6 8 -20 0 -14 -8
-20 -8 -20 0 0 8 -6 8 -20 0 -11 -6 -20 -7 -20 -3 0 4 -24 9 -52 10 -69 2 -98
6 -98 13 0 3 -12 6 -27 5 -16 0 -42 5 -59 12 -17 7 -34 9 -38 6 -3 -4 -6 0 -6
7 0 7 -3 11 -6 7 -4 -3 -22 0 -40 8 -19 8 -34 12 -34 9 0 -18 -237 127 -247
152 -3 8 -11 14 -19 14 -8 0 -14 4 -14 8 0 5 -20 30 -45 56 -25 27 -45 51 -45
54 0 3 -11 20 -25 38 -14 18 -25 36 -25 40 0 4 -10 21 -23 38 -13 17 -30 46
-38 64 -8 17 -16 33 -19 33 -5 1 -209 7 -382 11 -43 1 -74 6 -71 11 3 5 -4 4
-16 -2 -13 -7 -21 -8 -21 -2 0 6 -7 8 -16 4 -12 -4 -14 -15 -9 -47 3 -22 10
-50 15 -61 5 -11 15 -36 24 -55 46 -110 60 -137 76 -155 10 -11 21 -31 25 -45
4 -13 23 -47 41 -73 19 -27 34 -54 34 -59 0 -5 4 -7 9 -4 5 3 11 -4 15 -17 3
-12 28 -46 56 -75 27 -29 50 -54 50 -56 0 -2 16 -20 35 -40 19 -21 35 -35 35
-31 0 3 18 -12 40 -34 22 -22 40 -38 40 -36 0 2 12 -7 26 -20 31 -29 186 -121
197 -117 8 2 8 -10 9 -266 0 -100 4 -184 8 -187 8 -5 78 60 254 232 66 65 96
88 117 89 16 1 29 -1 29 -5 0 -4 14 -7 30 -6 17 1 30 -1 30 -4 0 -7 37 -10
177 -13 58 -2 99 -7 96 -12 -4 -5 0 -6 8 -1 7 5 34 10 59 12 145 8 289 31 326
51 11 6 30 10 41 9 24 -1 344 132 358 150 6 7 27 19 48 28 20 8 37 19 37 24 0
5 13 14 29 21 16 6 32 18 35 26 3 8 11 14 18 14 8 0 21 8 29 18 9 9 34 31 55
47 21 17 75 66 120 110 45 44 112 107 148 140 37 33 83 75 102 93 19 17 37 32
39 32 3 0 13 7 23 16 69 63 109 94 120 94 6 0 12 4 12 9 0 9 45 40 99 70 14 8
29 20 33 26 4 7 35 23 68 35 33 12 58 26 55 30 -6 10 183 90 212 90 12 0 48
11 79 25 63 28 68 29 59 15 -3 -5 11 -2 32 7 21 9 49 17 63 19 45 6 115 21
134 29 13 6 17 5 12 -3 -4 -8 4 -7 26 2 18 7 38 11 45 9 7 -2 21 1 32 7 14 7
21 7 21 1 0 -6 15 -4 34 6 33 15 77 85 63 99 -4 4 -2 14 3 24 8 16 13 36 27
110 2 14 5 78 6 144 2 113 1 119 -20 127 -11 4 -23 5 -26 3z"/>
</g>
</svg>
